<?xml version="1.0" encoding="UTF-8"?>
<svg id="Layer_2" data-name="Layer 2" xmlns="http://www.w3.org/2000/svg" viewBox="0 0 133.26 120.24">
  <defs>
    <style>
      .cls-1 {
        stroke: #231f20;
        stroke-miterlimit: 10;
      }

      .cls-2 {
        fill: #fdb800;
      }
    </style>
  </defs>
  <g id="Layer_1-2" data-name="Layer 1">
    <g>
      <path class="cls-2" d="m31.92,42.59c.18.29.25.5.22.61-.03.12-.12.18-.28.18h-5.16c-.12,0-.21-.03-.29-.09s-.19-.22-.32-.5c-.25-.47-.55-1-.9-1.6-.35-.6-.69-1.18-1.02-1.72-.39-.64-.79-1.28-1.2-1.93l-3.36.06v5.51c0,.12-.01.19-.04.22-.03.03-.09.04-.19.04h-4.76c-.12,0-.18,0-.2-.01-.02,0-.03-.09-.03-.25v-19.26c0-.16.03-.24.09-.25.06,0,.11-.01.14-.01h9.02c1.13,0,2.12.18,2.98.54.86.36,1.58.85,2.16,1.46.58.61,1.02,1.32,1.31,2.13.29.81.44,1.66.44,2.55,0,1.34-.23,2.48-.69,3.4-.46.92-1.13,1.6-2.03,2.03.19.29.44.69.73,1.2.29.51.62,1.06.98,1.68.36.61.74,1.26,1.15,1.95.41.69.83,1.38,1.25,2.06Zm-6.94-11.93c0-.78-.2-1.42-.6-1.94-.4-.51-1.03-.77-1.88-.77h-2.89v5.72l2.92-.09c.8-.04,1.41-.32,1.82-.85.42-.53.63-1.22.63-2.07Z"/>
      <path class="cls-2" d="m53.86,33.55c0,1.44-.26,2.79-.79,4.04s-1.25,2.35-2.17,3.28c-.92.93-2.02,1.67-3.28,2.2s-2.64.8-4.11.8-2.85-.27-4.11-.8c-1.27-.53-2.36-1.27-3.28-2.2-.92-.93-1.65-2.03-2.17-3.28s-.79-2.6-.79-4.04.26-2.76.79-4.03,1.25-2.36,2.17-3.3c.92-.93,2.02-1.67,3.28-2.22,1.26-.54,2.64-.82,4.11-.82s2.85.27,4.11.82c1.26.54,2.36,1.28,3.28,2.22.92.93,1.65,2.03,2.17,3.3s.79,2.61.79,4.03Zm-5.46,0c0-.76-.11-1.46-.34-2.12-.22-.65-.54-1.22-.96-1.69-.42-.48-.93-.86-1.53-1.14-.6-.28-1.29-.42-2.07-.42s-1.5.14-2.1.42c-.6.28-1.11.66-1.53,1.14-.42.48-.73,1.04-.95,1.69-.21.65-.32,1.36-.32,2.12s.11,1.46.32,2.1c.21.64.53,1.21.95,1.69.42.49.93.87,1.53,1.14.6.27,1.3.41,2.1.41s1.47-.14,2.07-.41c.6-.27,1.11-.65,1.53-1.14.42-.49.74-1.05.96-1.69.22-.64.34-1.34.34-2.1Z"/>
      <path class="cls-2" d="m70,43.33s-.09.04-.2.04h-12.31c-.14,0-.21,0-.23-.01-.02,0-.03-.09-.03-.25v-19.26c0-.16.01-.24.03-.25.02,0,.1-.01.23-.01h4.7c.12,0,.19.01.22.04.03.03.04.1.04.22v14.88l7.32-.15c.12,0,.19.02.22.06.03.04.04.12.04.23v4.23c0,.12-.01.19-.03.22Z"/>
      <path class="cls-2" d="m31.25,62.08c0,1.61-.49,2.91-1.47,3.9-.98.98-2.35,1.47-4.1,1.47h-11.03c-.12,0-.19-.02-.22-.06-.03-.04-.04-.16-.04-.35v-19.08c0-.19.12-.29.35-.29h10.21c1.81,0,3.22.45,4.23,1.36s1.52,2.18,1.52,3.84c0,1.07-.3,1.98-.89,2.74-.59.76-1.46,1.3-2.61,1.63.62.06,1.19.24,1.69.54.51.3.93.68,1.28,1.12.35.45.62.94.8,1.49.18.54.28,1.11.28,1.69Zm-5.86-8.46c0-1.24-.62-1.87-1.87-1.87h-3.91v3.73h3.91c.6,0,1.06-.17,1.39-.5.32-.33.48-.79.48-1.37Zm.44,7.62c0-.62-.19-1.14-.57-1.55-.38-.41-.86-.61-1.44-.61h-4.2v4.29h4.2c.62,0,1.11-.18,1.47-.55.36-.37.54-.89.54-1.58Z"/>
      <path class="cls-2" d="m48.33,67.38s-.12.07-.28.07h-13.33c-.16,0-.25-.02-.28-.07-.03-.05-.04-.16-.04-.34v-19.08c0-.14,0-.22.01-.25,0-.03.09-.04.25-.04h13.19c.16,0,.25.02.28.06.03.04.04.15.04.32v3.56c0,.27-.11.41-.32.41l-8.34-.09v3.3h8.17c.14,0,.22.02.25.07.03.05.04.16.04.34v3.56c0,.18-.01.29-.04.34-.03.05-.11.07-.25.07h-8.17v3.38l8.55-.09c.15,0,.25.01.28.04.03.03.04.14.04.34v3.76c0,.18-.01.29-.04.34Z"/>
      <path class="cls-2" d="m69,66.66c.18.29.25.5.22.61-.03.12-.12.18-.28.18h-5.16c-.12,0-.21-.03-.29-.09s-.19-.22-.32-.5c-.25-.47-.55-1-.9-1.6-.35-.6-.69-1.18-1.02-1.72-.39-.64-.79-1.28-1.2-1.93l-3.36.06v5.51c0,.12-.01.19-.04.22-.03.03-.09.04-.19.04h-4.76c-.12,0-.18,0-.2-.01-.02,0-.03-.09-.03-.25v-19.26c0-.16.03-.24.09-.25.06,0,.11-.01.14-.01h9.02c1.13,0,2.12.18,2.98.54.86.36,1.58.85,2.16,1.46.58.61,1.02,1.32,1.31,2.13.29.81.44,1.66.44,2.55,0,1.34-.23,2.48-.69,3.4-.46.92-1.13,1.6-2.03,2.03.19.29.44.69.73,1.2.29.51.62,1.06.98,1.68.36.61.74,1.26,1.15,1.95.41.69.83,1.38,1.25,2.06Zm-6.94-11.93c0-.78-.2-1.42-.6-1.94-.4-.51-1.03-.77-1.88-.77h-2.89v5.72l2.92-.09c.8-.04,1.41-.32,1.82-.85.42-.53.63-1.22.63-2.07Z"/>
      <path class="cls-2" d="m84.47,67.41s-.09.04-.2.04h-12.31c-.14,0-.21,0-.23-.01-.02,0-.03-.09-.03-.25V23.62c0-.16.01-.24.03-.25.02,0,.1-.01.23-.01h4.7c.12,0,.19.01.22.04.03.03.04.1.04.22v39.2l7.32-.15c.12,0,.19.02.22.06.03.04.04.12.04.23v4.23c0,.12-.01.19-.03.22Z"/>
      <path class="cls-2" d="m92.24,67.41s-.11.04-.25.04h-4.84c-.14,0-.21,0-.23-.01-.02,0-.03-.09-.03-.25V23.62c0-.16.01-.24.03-.25.02,0,.1-.01.23-.01h4.84c.14,0,.22.01.25.04.03.03.04.1.04.22v43.57c0,.12-.01.19-.04.22Z"/>
      <path class="cls-2" d="m113.3,67.6c0,.23-.03.36-.09.38-.06.04-.15,0-.26-.09-.57-.41-1.16-.86-1.77-1.36-.61-.5-1.24-1.01-1.87-1.53-.63-.53-1.26-1.05-1.89-1.59-.62-.53-1.22-1.05-1.78-1.56-1.35-1.17-2.68-2.36-4.01-3.59v8.93c0,.14-.01.21-.03.23-.02.02-.1.03-.23.03h-4.38c-.1,0-.17-.03-.22-.1-.05-.07-.07-.13-.07-.19-.04-1.87-.06-3.58-.07-5.15-.01-1.57-.01-3.11-.01-4.64s0-3.09.01-4.7c0-1.6.03-3.37.07-5.3,0-.12.03-.19.09-.23.06-.06.14-.05.23.03.53.37,1.09.79,1.7,1.27.6.48,1.22.98,1.84,1.5.62.53,1.25,1.06,1.89,1.59.63.54,1.24,1.06,1.83,1.56,1.37,1.21,2.73,2.43,4.1,3.68v-8.75c0-.16,0-.25.03-.29.02-.04.09-.06.2-.06h4.41c.15,0,.24.02.26.06.02.04.03.14.03.29.02,1.42.04,2.96.06,4.61.02,1.65.03,3.34.03,5.05s0,3.41-.03,5.11c-.02,1.69-.04,3.3-.06,4.81Z"/>
      <path class="cls-2" d="m113.3,43.89c0,.23-.03.36-.09.38-.06.04-.15,0-.26-.09-.57-.41-1.16-.86-1.77-1.36-.61-.5-1.24-1.01-1.87-1.53-.63-.53-1.26-1.05-1.89-1.59-.62-.53-1.22-1.05-1.78-1.56-1.35-1.17-2.68-2.36-4.01-3.59v8.93c0,.14-.01.21-.03.23-.02.02-.1.03-.23.03h-4.38c-.1,0-.17-.03-.22-.1-.05-.07-.07-.13-.07-.19-.04-1.87-.06-3.58-.07-5.15-.01-1.57-.01-3.11-.01-4.64s0-3.09.01-4.7c0-1.6.03-3.37.07-5.3,0-.12.03-.19.09-.23.06-.06.14-.05.23.03.53.37,1.09.79,1.7,1.27.6.48,1.22.98,1.84,1.5.62.53,1.25,1.06,1.89,1.59.63.54,1.24,1.06,1.83,1.56,1.37,1.21,2.73,2.43,4.1,3.68v-8.75c0-.16,0-.25.03-.29.02-.04.09-.06.2-.06h4.41c.15,0,.24.02.26.06.02.04.03.14.03.29.02,1.42.04,2.96.06,4.61.02,1.65.03,3.34.03,5.05s0,3.41-.03,5.11c-.02,1.69-.04,3.3-.06,4.81Z"/>
    </g>
    <g>
      <circle class="cls-1" cx="93.6" cy="97.27" r="5.62"/>
      <circle class="cls-1" cx="32.63" cy="95.02" r="5.62"/>
      <path class="cls-2" d="m113.65,85.39s4.15-10.45-46.55-10.42c-50.7.03-53.39,3.68-52.33,8.94,1.07,5.27,5.1,9.79,22.04,9.64,16.93-.15,75.64,7.21,76.84-8.16Z"/>
    </g>
    <path class="cls-2" d="m3.18,3.59c14.7,2.73,62.81,3.6,94.5,3.6,14.66,0,25.81-.19,28.5-.46-2.5,56.86,10.5,107.86-.21,109.1-1.14-.15-3.26-.21-6.16-.21-14.93,0-50.43,1.62-78.46,1.62-17.79,0-32.56-.65-37.17-2.78C7.96,101.97,1.91,45.25,3.18,3.59M.29,0l-.11,3.5c-.58,19.13.37,41.41,1.21,61.06.94,21.98,1.82,42.73-.08,49.04l-.76,2.5,2.37,1.09c2.84,1.31,9.91,3.06,38.43,3.06,16.24,0,34.58-.53,50.77-1,11.5-.33,21.44-.62,27.69-.62,2.89,0,4.83.06,5.78.18l.36.05.36-.04c6.59-.76,6.83-10.29,6.93-14.35.18-7.14-.65-17.23-1.62-28.92-1.59-19.31-3.56-43.34-2.45-68.67l.15-3.46-3.45.35c-2.18.22-11.74.44-28.2.44C60.41,4.19,16.9,3.09,3.73.64L.29,0H.29Z"/>
  </g>
</svg>