<?xml version="1.0" encoding="UTF-8"?>
<svg id="Layer_2" data-name="Layer 2" xmlns="http://www.w3.org/2000/svg" viewBox="0 0 163.15 128.89">
  <defs>
    <style>
      .cls-1, .cls-2, .cls-3, .cls-4, .cls-5, .cls-6 {
        stroke-miterlimit: 10;
      }

      .cls-1, .cls-5 {
        stroke: #231f20;
      }

      .cls-2, .cls-3, .cls-4, .cls-6 {
        stroke: #000;
      }

      .cls-7 {
        fill: #52d6ff;
      }

      .cls-3 {
        stroke-linecap: round;
      }

      .cls-3, .cls-5, .cls-6 {
        fill: none;
      }

      .cls-4 {
        fill: #fff;
      }
    </style>
  </defs>
  <g id="Layer_1-2" data-name="Layer 1">
    <g>
      <g>
        <circle class="cls-1" cx="119.89" cy="122.76" r="5.62"/>
        <circle class="cls-1" cx="58.93" cy="120.51" r="5.62"/>
        <path class="cls-7" d="m139.95,110.88s4.15-10.45-46.55-10.42c-50.7.03-53.39,3.68-52.33,8.94,1.07,5.27,5.1,9.79,22.04,9.64,16.93-.15,75.64,7.21,76.84-8.16Z"/>
        <line class="cls-5" x1="38.51" y1="100.62" x2="10.25" y2="99.87"/>
        <path class="cls-5" d="m29.58,110.01s-25.18-2.27-29.32.33"/>
        <path class="cls-5" d="m33.82,118.62s-9.2,1.01-16.34-.21"/>
      </g>
      <g>
        <polyline class="cls-6" points="125.04 42.81 141.88 38.14 150.99 61.17"/>
        <path class="cls-4" d="m150.76,61.26s11.09-.32,11.82,2.98c.73,3.31-4.15,2.94-4.15,2.94,0,0,4.7,2.03,1.67,4.23-3.02,2.2-6.38-2.65-6.38-2.65,0,0,2.47,4.31-.55,5.51-7.34,2.9-2.41-13-2.41-13Z"/>
        <polyline class="cls-6" points="62.87 43.07 46.06 40.86 40.03 66.16"/>
        <path class="cls-4" d="m40.16,65.95s-7.99,5.16-6.08,7.8,4.82-.61,4.82-.61c0,0-1.7,3.67.43,4.56s4.32-4.58,4.32-4.58c0,0,.78,6.77,3.07,3.81,5.09-6.56-6.57-10.98-6.57-10.98Z"/>
        <path class="cls-2" d="m103.52,67.58l9.22,46.21s14.11-.12,12.08-5.58c0,0-.68-5.21-13.49-1.47"/>
        <path class="cls-2" d="m84.24,65.95l-11.05,45.81s12.85,5.82,13.31.01c0,0,1.57-5.02-11.62-7"/>
        <circle class="cls-7" cx="94.47" cy="39.09" r="39.08"/>
        <path class="cls-3" d="m113.35,37.01s-9.36,33.28-37.82,4.74"/>
        <path class="cls-3" d="m72.78,25.38s7.9,11.46,11.63-1.46"/>
        <path class="cls-3" d="m98.96,22.08s7.9,11.46,11.63-1.46"/>
      </g>
    </g>
  </g>
</svg>