<?xml version="1.0" encoding="UTF-8"?>
<svg id="Layer_2" data-name="Layer 2" xmlns="http://www.w3.org/2000/svg" viewBox="0 0 128.93 146.96">
  <defs>
    <style>
      .cls-1 {
        stroke: #231f20;
      }

      .cls-1, .cls-2, .cls-3, .cls-4, .cls-5 {
        stroke-miterlimit: 10;
      }

      .cls-2, .cls-3, .cls-4, .cls-5 {
        stroke: #000;
      }

      .cls-6 {
        fill: #52d6ff;
      }

      .cls-3 {
        stroke-linecap: round;
      }

      .cls-3, .cls-5 {
        fill: none;
      }

      .cls-4 {
        fill: #fff;
      }
    </style>
  </defs>
  <g id="Layer_1-2" data-name="Layer 1">
    <g>
      <path class="cls-2" d="m119.33,95.95s12.5-6.55,8.2-10.48c0,0-2.98-4.33-12.67,4.85"/>
      <g>
        <circle class="cls-1" cx="102.5" cy="131.53" r="5.62"/>
        <circle class="cls-1" cx="42.21" cy="140.84" r="5.62"/>
        <path class="cls-6" d="m119.95,116.07s2.1-11.05-47.68-1.44c-49.79,9.61-51.74,13.7-49.7,18.67,2.04,4.97,6.86,8.65,23.46,5.31,16.6-3.34,75.64-7.22,73.92-22.54Z"/>
      </g>
      <g>
        <polyline class="cls-5" points="93.5 42.47 110.51 38.46 107.41 13.89"/>
        <path class="cls-4" d="m107.16,13.92s9.88-5.05,8.93-8.3c-.95-3.25-5.05-.58-5.05-.58,0,0,3.14-4.04-.57-4.51-3.71-.48-4.32,5.4-4.32,5.4,0,0,.09-4.97-3.14-4.56-7.83.99,4.14,12.56,4.14,12.56Z"/>
        <polyline class="cls-5" points="29.55 54.85 12.74 52.64 6.71 77.94"/>
        <path class="cls-4" d="m6.87,77.92s-7.99,5.16-6.08,7.8,4.82-.61,4.82-.61c0,0-1.7,3.67.43,4.56s4.32-4.58,4.32-4.58c0,0,.78,6.77,3.07,3.81,5.09-6.56-6.57-10.98-6.57-10.98Z"/>
        <polyline class="cls-5" points="73.08 82 104.27 76.97 119.7 96.31"/>
        <path class="cls-2" d="m40.27,76.08l2.82,34.19s-10.27,5.78-11.44-3.28c-.66-5.14,11-2.07,11-2.07"/>
        <circle class="cls-6" cx="61.15" cy="50.87" r="39.08"/>
        <path class="cls-3" d="m42.21,53.51c28.47,28.59,37.82-4.74,37.82-4.74l-37.82,4.74Z"/>
        <path class="cls-3" d="m79.94,36.08s-9.67-12.61-14.55,1.83"/>
        <path class="cls-3" d="m52.75,40.21s-9.67-12.61-14.55,1.83"/>
      </g>
    </g>
  </g>
</svg>