<?xml version="1.0" encoding="UTF-8"?>
<svg id="Layer_1" data-name="Layer 1" xmlns="http://www.w3.org/2000/svg" viewBox="0 0 150 150">
  <defs>
    <style>
      .cls-1, .cls-2, .cls-3, .cls-4, .cls-5, .cls-6, .cls-7 {
        stroke-miterlimit: 10;
      }

      .cls-1, .cls-5 {
        stroke: #231f20;
      }

      .cls-2, .cls-3, .cls-4, .cls-6, .cls-7 {
        stroke: #000;
      }

      .cls-3 {
        stroke-linecap: round;
      }

      .cls-3, .cls-7 {
        fill: none;
      }

      .cls-4 {
        fill: #fff;
      }

      .cls-5, .cls-6 {
        fill: #fdb800;
      }
    </style>
  </defs>
  <path class="cls-2" d="m131.04,98.08s12.5-6.55,8.2-10.48c0,0-2.98-4.33-12.67,4.85"/>
  <g>
    <circle class="cls-1" cx="114.2" cy="133.66" r="5.62"/>
    <circle class="cls-1" cx="53.92" cy="142.97" r="5.62"/>
    <path class="cls-5" d="m131.65,118.2s2.1-11.05-47.68-1.44c-49.79,9.61-51.74,13.7-49.7,18.67,2.04,4.97,6.86,8.65,23.46,5.31,16.6-3.34,75.64-7.22,73.92-22.54Z"/>
  </g>
  <g>
    <polyline class="cls-7" points="105.2 44.6 122.21 40.59 119.12 16.02"/>
    <path class="cls-4" d="m118.86,16.05s9.88-5.05,8.93-8.3c-.95-3.25-5.05-.58-5.05-.58,0,0,3.14-4.04-.57-4.51-3.71-.48-4.32,5.4-4.32,5.4,0,0,.09-4.97-3.14-4.56-7.83.99,4.14,12.56,4.14,12.56Z"/>
    <polyline class="cls-7" points="41.26 56.98 24.45 54.77 18.42 80.07"/>
    <path class="cls-4" d="m18.58,80.05s-7.99,5.16-6.08,7.8c1.92,2.64,4.82-.61,4.82-.61,0,0-1.7,3.67.43,4.56s4.32-4.58,4.32-4.58c0,0,.78,6.77,3.07,3.81,5.09-6.56-6.57-10.98-6.57-10.98Z"/>
    <polyline class="cls-7" points="84.79 84.13 115.97 79.1 131.41 98.45"/>
    <path class="cls-2" d="m51.98,78.21l2.82,34.19s-10.27,5.78-11.44-3.28c-.66-5.14,11-2.07,11-2.07"/>
    <circle class="cls-6" cx="72.86" cy="53" r="39.08"/>
    <path class="cls-3" d="m53.92,55.64c28.47,28.59,37.82-4.74,37.82-4.74l-37.82,4.74Z"/>
    <path class="cls-3" d="m91.64,38.21s-9.67-12.61-14.55,1.83"/>
    <path class="cls-3" d="m64.46,42.34s-9.67-12.61-14.55,1.83"/>
  </g>
</svg>