<?xml version="1.0" encoding="UTF-8"?>
<svg id="Layer_2" data-name="Layer 2" xmlns="http://www.w3.org/2000/svg" viewBox="0 0 166.37 131.93">
  <defs>
    <style>
      .cls-1, .cls-2, .cls-3, .cls-4, .cls-5, .cls-6, .cls-7, .cls-8 {
        stroke-miterlimit: 10;
      }

      .cls-1, .cls-5, .cls-7 {
        stroke: #231f20;
      }

      .cls-2, .cls-3, .cls-4, .cls-6, .cls-8 {
        stroke: #000;
      }

      .cls-3 {
        stroke-linecap: round;
      }

      .cls-3, .cls-7, .cls-8 {
        fill: none;
      }

      .cls-4 {
        fill: #fff;
      }

      .cls-5, .cls-6 {
        fill: #fdb800;
      }
    </style>
  </defs>
  <g id="Layer_1-2" data-name="Layer 1">
    <g>
      <g>
        <circle class="cls-1" cx="122.26" cy="125.7" r="5.74"/>
        <circle class="cls-1" cx="60.09" cy="123.4" r="5.74"/>
        <path class="cls-5" d="m142.72,113.58s4.24-10.66-47.47-10.63c-51.71.03-54.45,3.75-53.37,9.12,1.09,5.37,5.21,9.98,22.47,9.83,17.27-.15,77.14,7.35,78.37-8.33Z"/>
        <line class="cls-7" x1="39.27" y1="103.12" x2="10.45" y2="102.35"/>
        <path class="cls-7" d="m30.17,112.69s-25.68-2.31-29.9.33"/>
        <path class="cls-7" d="m34.48,121.47s-9.38,1.03-16.66-.21"/>
      </g>
      <g>
        <polyline class="cls-8" points="127.52 44.16 144.69 39.39 153.98 62.88"/>
        <path class="cls-4" d="m153.74,62.98s11.31-.33,12.06,3.04c.75,3.37-4.23,2.99-4.23,2.99,0,0,4.79,2.07,1.71,4.31-3.08,2.25-6.51-2.71-6.51-2.71,0,0,2.52,4.4-.57,5.62-7.48,2.96-2.46-13.26-2.46-13.26Z"/>
        <polyline class="cls-8" points="64.11 44.42 46.97 42.17 40.82 67.97"/>
        <path class="cls-4" d="m40.95,67.75s-8.15,5.26-6.2,7.95,4.92-.62,4.92-.62c0,0-1.73,3.74.44,4.65s4.41-4.67,4.41-4.67c0,0,.8,6.9,3.13,3.89,5.19-6.69-6.7-11.2-6.7-11.2Z"/>
        <path class="cls-2" d="m105.57,69.42l9.4,47.13s14.39-.12,12.32-5.69c0,0-.69-5.32-13.75-1.5"/>
        <path class="cls-2" d="m85.9,67.75l-11.27,46.72s13.11,5.94,13.57.01c0,0,1.6-5.11-11.85-7.14"/>
        <circle class="cls-6" cx="96.34" cy="40.36" r="39.86"/>
        <path class="cls-3" d="m115.59,38.25s-9.54,33.94-38.57,4.84"/>
        <path class="cls-3" d="m74.21,26.39s8.06,11.69,11.86-1.49"/>
        <path class="cls-3" d="m100.92,23.02s8.06,11.69,11.86-1.49"/>
      </g>
    </g>
  </g>
</svg>